<?xml version="1.0" standalone="no"?>
<!DOCTYPE svg PUBLIC "-//W3C//DTD SVG 20010904//EN"
 "http://www.w3.org/TR/2001/REC-SVG-20010904/DTD/svg10.dtd">
<svg version="1.0" xmlns="http://www.w3.org/2000/svg"
 width="1280.000000pt" height="640.000000pt" viewBox="0 0 1280.000000 640.000000"
 preserveAspectRatio="xMidYMid meet">
<metadata>
Created by potrace 1.15, written by Peter Selinger 2001-2017
</metadata>
<g transform="translate(0.000000,640.000000) scale(0.100000,-0.100000)"
fill="#009688" stroke="none">
<path d="M7594 6175 c-287 -66 -517 -280 -585 -543 -61 -238 34 -541 214 -684
194 -154 453 -176 692 -58 139 68 230 168 275 301 31 91 26 229 -12 312 -33
70 -111 155 -175 189 -173 94 -354 71 -472 -58 -69 -75 -94 -133 -99 -227 -4
-68 -1 -84 23 -132 28 -59 88 -115 148 -140 53 -22 84 -19 103 10 22 33 7 69
-37 93 -119 65 -145 137 -89 248 49 100 141 153 242 141 101 -12 190 -73 236
-161 23 -44 27 -63 27 -136 0 -73 -4 -93 -28 -142 -33 -68 -124 -155 -199
-192 -151 -73 -343 -75 -480 -5 -159 81 -280 316 -265 513 24 321 319 566 682
566 354 0 631 -182 729 -479 137 -411 -60 -871 -457 -1068 -95 -47 -213 -84
-332 -104 -87 -15 -507 -19 -586 -6 l-46 8 13 37 c73 205 -136 399 -332 308
-121 -56 -171 -196 -73 -204 31 -3 40 2 77 47 47 56 83 69 137 51 51 -17 75
-53 75 -114 0 -60 -25 -108 -69 -131 -54 -28 -124 -37 -188 -26 -104 19 -166
59 -353 228 -367 331 -442 385 -620 446 -268 92 -537 35 -832 -173 -97 -69
-232 -198 -438 -419 -192 -207 -376 -344 -625 -467 -247 -122 -532 -194 -776
-194 l-67 0 -58 68 c-31 37 -83 94 -113 126 -33 35 -48 56 -36 52 118 -42 466
-45 648 -6 433 92 823 322 1178 694 413 435 817 551 1214 350 93 -48 171 -104
285 -208 117 -106 177 -137 265 -137 129 0 211 68 246 205 36 145 -102 293
-239 257 -56 -16 -103 -51 -129 -96 -27 -47 -29 -82 -8 -133 32 -75 76 -99
123 -66 28 19 28 47 0 92 l-21 35 27 24 c37 32 79 30 106 -4 18 -23 21 -37 17
-77 -4 -41 -11 -55 -41 -83 -30 -28 -43 -33 -83 -33 -60 0 -83 14 -196 118
-254 232 -496 332 -772 319 -158 -8 -267 -37 -415 -112 -161 -81 -278 -173
-477 -374 -94 -94 -133 -128 -129 -111 17 63 18 217 2 288 -37 178 -151 329
-302 404 -75 37 -92 41 -177 46 -114 6 -174 -7 -282 -59 -142 -69 -233 -171
-275 -307 -24 -76 -26 -198 -5 -257 8 -22 15 -44 15 -49 0 -5 -62 52 -138 125
-75 74 -179 169 -230 212 -76 63 -99 77 -127 77 -39 0 -60 -27 -51 -65 3 -13
63 -74 133 -136 186 -165 331 -308 452 -444 121 -137 241 -288 241 -303 0 -6
-10 -14 -22 -18 -19 -6 -32 4 -82 62 -109 126 -469 479 -596 584 -208 173
-396 308 -437 316 -65 12 -92 -29 -52 -80 12 -15 83 -74 158 -130 285 -216
528 -434 743 -670 111 -122 117 -135 57 -136 -16 0 -37 13 -60 36 -71 75 -339
324 -430 399 -209 174 -483 367 -724 512 -130 78 -167 90 -200 69 -58 -38 -25
-78 150 -184 242 -146 495 -324 690 -487 109 -90 395 -356 395 -366 0 -5 -24
-9 -52 -9 -52 1 -55 2 -143 81 -417 373 -946 708 -1465 928 -137 58 -184 66
-206 36 -36 -49 -1 -82 163 -151 444 -187 917 -476 1298 -792 121 -101 117
-95 65 -87 -160 26 -352 108 -483 208 -427 326 -987 588 -1480 692 -268 57
-547 79 -790 64 -186 -12 -177 -8 -177 -75 l0 -56 32 6 c70 14 461 19 567 7
413 -47 788 -159 1170 -350 372 -186 663 -393 947 -676 137 -136 205 -216 346
-400 477 -623 817 -974 1188 -1226 36 -24 126 -75 200 -112 74 -38 124 -66
110 -62 -53 15 -229 107 -330 173 -331 216 -655 537 -1083 1072 -176 220 -292
346 -432 470 -615 544 -1347 875 -2103 951 -122 12 -446 7 -557 -9 l-50 -7 -3
-64 -3 -64 38 7 c21 3 105 11 187 18 324 25 742 -35 1106 -160 675 -231 1247
-630 1683 -1172 508 -632 830 -947 1199 -1176 158 -98 426 -211 511 -215 16
-1 17 -3 5 -6 -23 -6 -187 39 -278 77 -409 169 -797 499 -1325 1129 -169 201
-255 292 -395 416 -718 636 -1654 994 -2465 944 -82 -5 -174 -14 -204 -19 -30
-6 -56 -10 -58 -10 -2 0 -3 -28 -3 -61 l0 -62 43 7 c232 34 555 32 781 -4 660
-104 1330 -435 1858 -917 123 -112 223 -219 363 -389 625 -755 1168 -1157
1673 -1238 92 -15 119 -26 45 -19 -372 35 -774 249 -1190 634 -130 121 -266
264 -450 474 -363 415 -742 713 -1208 948 -385 194 -688 291 -1120 359 -110
17 -576 17 -675 0 -132 -23 -120 -15 -120 -82 0 -69 -10 -66 126 -45 846 128
1912 -271 2663 -999 45 -45 162 -171 260 -281 232 -263 283 -317 428 -450 481
-444 884 -652 1327 -684 l111 -8 -112 -2 c-220 -2 -430 51 -670 169 -335 166
-610 391 -998 815 -296 324 -518 516 -830 717 -469 304 -966 494 -1475 565
-214 30 -600 21 -781 -18 l-49 -11 0 -60 0 -61 43 7 c212 32 260 36 442 36
470 0 882 -103 1370 -345 452 -224 810 -495 1150 -870 382 -422 662 -660 990
-843 274 -153 528 -224 805 -225 110 -1 134 -3 100 -9 -69 -14 -384 -3 -465
16 -213 48 -445 151 -654 290 -217 145 -393 297 -626 542 -256 268 -391 392
-580 533 -560 419 -1156 667 -1775 741 -201 24 -566 9 -747 -30 l-53 -12 0
-65 c0 -58 2 -64 17 -59 60 24 267 48 440 53 587 17 1177 -163 1780 -542 288
-182 490 -350 797 -668 296 -307 445 -437 679 -594 234 -156 479 -262 727
-314 110 -23 352 -32 470 -17 l55 6 -55 -13 c-30 -8 -106 -19 -168 -24 -263
-23 -535 35 -817 174 -270 133 -446 268 -795 610 -140 138 -295 284 -345 326
-502 422 -1078 713 -1655 838 -213 46 -315 56 -575 56 -247 0 -305 -5 -477
-42 l-78 -16 0 -64 c0 -57 2 -64 18 -59 50 15 231 46 331 57 138 15 421 7 571
-16 324 -49 638 -150 965 -310 286 -139 483 -293 605 -470 45 -66 114 -218
136 -300 26 -94 27 -351 2 -440 -51 -187 -132 -321 -260 -430 -77 -66 -136
-100 -233 -131 -250 -82 -599 22 -802 239 -186 199 -240 469 -138 686 46 95
171 223 258 264 159 74 323 57 480 -49 84 -58 138 -119 183 -209 91 -184 48
-375 -103 -457 -94 -51 -210 -45 -300 15 -96 65 -137 213 -85 313 29 56 74 77
158 72 62 -3 65 -2 70 22 3 14 10 40 14 58 8 29 6 33 -18 39 -45 12 -134 9
-185 -6 -63 -18 -128 -77 -158 -143 -20 -44 -24 -69 -24 -143 1 -80 5 -98 32
-156 40 -87 91 -141 164 -178 169 -84 345 -62 474 60 239 226 150 617 -191
842 -376 248 -1021 380 -1579 322 -134 -14 -268 -35 -347 -56 l-38 -10 0 -61
0 -60 28 5 c15 2 90 16 167 31 375 70 830 47 1210 -61 88 -25 127 -43 92 -43
-10 0 -46 -13 -82 -29 l-64 -29 -128 23 c-384 70 -783 54 -1138 -47 l-80 -23
-3 -63 c-2 -38 1 -62 7 -62 6 0 57 13 113 30 296 85 602 106 943 64 171 -21
164 -15 108 -86 l-48 -60 -65 6 c-323 30 -616 7 -897 -69 -51 -13 -108 -31
-128 -39 l-35 -15 0 -67 c0 -59 2 -66 18 -61 252 81 360 107 538 127 103 12
487 11 499 -1 3 -4 -2 -34 -12 -68 l-18 -60 -215 -4 c-291 -6 -476 -39 -722
-129 l-88 -32 0 -63 c0 -35 4 -63 9 -63 6 0 45 14 88 30 267 103 661 163 876
134 l45 -6 7 -59 c4 -32 8 -62 8 -66 1 -3 -50 -6 -113 -4 -284 6 -613 -58
-867 -169 l-53 -22 0 -68 0 -69 88 38 c274 119 614 183 885 165 l104 -7 29
-61 c16 -33 30 -64 32 -68 2 -3 -69 -4 -156 -1 -316 11 -623 -48 -889 -173
l-93 -43 0 -65 c0 -36 2 -66 4 -66 2 0 48 20 101 45 344 160 718 217 1069 164
72 -11 85 -16 140 -61 34 -27 99 -72 146 -99 47 -28 76 -48 65 -45 -210 56
-303 73 -478 87 -310 23 -655 -44 -937 -184 l-105 -52 -3 -72 -3 -73 113 59
c263 138 517 200 810 201 311 0 583 -68 931 -232 157 -75 189 -80 206 -35 20
53 -45 101 -266 199 -40 17 -72 33 -70 34 1 1 31 -4 67 -11 36 -8 103 -14 149
-15 94 0 104 -5 306 -141 126 -85 150 -95 181 -74 30 20 31 56 2 89 -13 13
-69 56 -126 95 l-103 70 47 20 c25 12 51 21 56 21 11 0 171 -120 267 -200 41
-35 90 -73 109 -86 59 -40 102 -28 102 30 0 37 -56 92 -238 233 -67 52 -122
97 -122 99 0 2 14 17 32 33 l32 29 96 -78 c52 -43 155 -135 228 -204 159 -148
217 -182 240 -140 23 41 -28 114 -165 240 -108 99 -229 204 -282 246 l-35 26
28 37 28 36 81 -73 c45 -40 182 -171 303 -293 122 -121 238 -229 258 -240 l36
-20 22 22 c48 48 40 59 -228 324 -195 193 -380 365 -412 384 -1 1 6 21 15 44
l18 42 132 -123 c73 -68 151 -145 174 -171 49 -56 252 -216 413 -325 127 -87
282 -164 377 -189 63 -16 68 -16 93 0 53 35 19 92 -75 122 -201 65 -556 307
-751 510 -49 52 -142 141 -207 199 l-118 106 7 40 c4 23 10 43 13 47 4 3 96
-83 205 -192 266 -263 443 -395 708 -528 306 -153 583 -216 901 -204 444 16
880 199 1408 589 44 33 64 45 45 28 -50 -44 -247 -186 -365 -262 -194 -124
-369 -220 -548 -298 -121 -53 -147 -72 -147 -111 0 -40 38 -56 97 -40 56 14
279 119 423 199 131 73 351 216 493 321 54 39 97 69 97 66 0 -18 -378 -282
-568 -397 -172 -103 -202 -138 -147 -174 34 -22 72 -12 179 48 101 58 328 209
465 310 51 38 90 65 87 59 -8 -13 -197 -153 -330 -246 -122 -84 -136 -98 -136
-133 0 -35 16 -52 51 -52 33 0 176 93 382 248 81 62 146 108 142 103 -3 -5
-79 -66 -169 -135 -91 -70 -166 -132 -169 -139 -8 -25 15 -66 43 -76 33 -11
43 -5 190 106 47 36 64 46 38 23 -53 -46 -63 -84 -30 -113 32 -29 63 -20 136
38 63 51 97 72 68 43 -18 -18 -14 -63 6 -81 30 -27 57 -20 119 30 75 59 92 72
76 53 -16 -18 -17 -62 -1 -78 27 -27 73 -13 159 49 103 75 258 151 364 181
109 30 360 32 480 4 166 -38 311 -96 440 -176 145 -89 130 -83 163 -66 15 8
34 22 41 30 12 14 17 13 52 -4 48 -25 80 -25 109 -2 22 18 24 17 68 -5 56 -28
63 -28 95 -3 25 20 28 20 56 5 38 -19 85 -19 101 0 12 14 15 14 36 0 33 -22
69 -19 101 9 l28 24 33 -29 c51 -45 112 -34 112 21 0 23 -16 47 -67 102 -47
51 -34 41 43 -34 61 -60 119 -108 128 -108 50 0 70 43 45 93 -6 12 -52 64
-103 116 l-91 95 73 -64 c40 -35 117 -111 170 -169 124 -135 163 -172 237
-226 114 -82 256 -141 402 -166 144 -24 384 -1 567 56 132 41 226 -13 226
-128 0 -40 -5 -54 -29 -78 -37 -36 -79 -38 -109 -6 -34 36 -28 62 21 94 70 48
62 113 -15 113 -130 0 -196 -149 -117 -264 91 -134 281 -112 354 40 23 49 25
154 3 205 -41 94 -142 159 -249 159 -27 0 -111 -16 -187 -36 -508 -132 -886
43 -1125 521 -45 90 -76 175 -161 445 -79 248 -236 541 -403 751 -223 280
-491 479 -771 573 -57 19 -105 36 -108 38 -2 3 15 10 38 17 24 7 92 31 151 53
l109 41 61 -33 c383 -204 707 -590 891 -1058 20 -51 61 -182 90 -291 86 -314
148 -463 264 -637 167 -248 387 -382 659 -401 154 -10 273 11 763 137 106 28
136 32 200 27 98 -7 159 -29 215 -79 78 -69 95 -134 54 -208 -24 -43 -54 -60
-106 -60 -45 0 -113 63 -113 104 0 73 -73 126 -110 81 -31 -38 0 -177 53 -233
64 -69 204 -95 286 -52 117 59 167 224 106 347 -33 65 -120 147 -190 179 -69
32 -205 57 -265 48 -25 -3 -125 -26 -224 -51 -172 -43 -236 -52 -142 -20 101
34 212 131 256 223 118 243 9 573 -229 692 -242 121 -483 57 -588 -156 -36
-73 -38 -80 -38 -177 0 -82 4 -109 22 -148 32 -69 121 -158 199 -198 56 -28
79 -34 155 -37 85 -4 93 -3 155 28 127 62 180 186 137 319 -41 127 -162 199
-288 171 -109 -24 -171 -98 -163 -196 8 -97 62 -135 108 -77 17 22 20 36 16
66 -5 31 -2 42 18 62 33 33 110 35 148 5 35 -27 60 -93 52 -137 -26 -137 -219
-165 -350 -50 -115 101 -124 256 -23 371 56 63 110 87 200 87 199 1 353 -136
389 -343 20 -114 -10 -217 -88 -300 -82 -88 -221 -138 -383 -138 -382 0 -608
358 -754 1200 -20 113 -47 246 -60 297 -85 322 -277 669 -510 921 l-67 72 34
14 c67 28 266 94 388 129 517 147 926 146 1208 -4 218 -115 364 -297 461 -574
44 -123 61 -211 61 -310 0 -112 -14 -173 -61 -272 -134 -281 -504 -445 -821
-364 -208 53 -402 221 -479 413 -26 65 -36 203 -20 277 36 168 170 324 323
378 76 26 211 24 303 -4 135 -42 260 -146 318 -262 28 -57 32 -75 32 -146 0
-68 -4 -89 -28 -137 -51 -104 -141 -158 -261 -158 -109 1 -197 62 -236 167
-45 120 -9 199 111 238 52 18 69 37 69 80 0 39 -36 51 -105 36 -73 -16 -143
-65 -180 -125 -28 -46 -30 -57 -30 -140 0 -81 3 -98 31 -156 56 -118 164 -202
282 -219 72 -10 180 4 242 32 84 37 144 96 187 184 34 68 38 85 41 172 3 79 0
107 -18 160 -68 204 -256 359 -491 407 -209 42 -406 -18 -541 -165 -195 -213
-236 -503 -105 -741 108 -197 309 -354 526 -412 107 -29 305 -29 412 0 176 47
295 115 414 237 126 128 191 271 210 464 l7 75 33 -80 c45 -111 90 -197 148
-284 168 -252 447 -458 717 -530 119 -32 288 -33 378 -1 237 82 420 332 439
594 7 102 -11 179 -69 297 -48 100 -152 211 -234 253 -261 132 -595 26 -721
-230 -32 -65 -37 -86 -41 -162 -3 -64 0 -104 13 -147 37 -128 134 -242 253
-297 58 -26 78 -30 152 -30 149 -1 266 64 329 183 66 123 52 252 -37 351 -87
98 -197 124 -300 73 -58 -29 -85 -60 -100 -117 -13 -48 1 -85 36 -94 33 -8 52
5 77 53 39 75 114 82 186 17 82 -74 75 -202 -16 -282 -51 -45 -98 -61 -174
-61 -118 0 -212 66 -270 189 -21 46 -26 70 -26 136 0 72 3 86 34 143 60 111
163 181 299 203 218 36 416 -110 478 -352 52 -201 -88 -480 -292 -580 -63 -31
-77 -34 -176 -37 -83 -3 -125 1 -188 17 -108 27 -245 96 -350 175 -100 75
-239 217 -292 298 -42 62 -117 210 -149 290 l-20 52 60 -57 c76 -73 136 -101
216 -101 72 0 129 26 169 78 84 111 72 226 -33 301 -28 20 -51 38 -51 40 0 2
16 -3 35 -11 58 -24 143 -28 213 -10 190 48 319 218 298 393 -18 155 -120 252
-276 261 -96 5 -151 -10 -202 -56 -71 -64 -94 -149 -67 -247 13 -48 86 -125
118 -125 22 0 71 41 71 60 0 5 -16 28 -36 49 -85 95 -34 201 99 201 101 0 170
-71 169 -173 -1 -98 -48 -168 -144 -216 -136 -68 -277 -23 -366 117 -17 26
-56 121 -87 212 -116 340 -259 589 -460 799 -480 502 -1213 621 -2094 339
-253 -80 -318 -100 -436 -129 -143 -35 -160 -36 -120 -7 70 51 191 179 243
257 64 95 121 230 148 347 25 106 26 329 2 429 -78 320 -294 544 -603 626
-104 27 -377 36 -471 14z m-3573 -851 c166 -50 285 -212 296 -404 15 -252
-116 -434 -424 -589 l-82 -41 -37 53 c-21 28 -65 86 -99 127 -98 121 -94 113
-42 90 137 -61 309 -20 420 99 129 137 143 320 34 439 -62 66 -108 87 -197 87
-58 0 -84 -5 -116 -22 -140 -74 -178 -262 -74 -365 29 -29 46 -38 72 -38 66 0
79 53 26 108 -27 27 -33 41 -32 75 1 59 19 86 71 109 57 25 101 18 148 -23
107 -95 42 -287 -120 -355 -149 -62 -333 54 -363 229 -11 60 4 149 34 208 83
164 311 264 485 213z m1539 -346 c-19 -5 -66 -19 -105 -30 -151 -43 -329 -146
-500 -290 -113 -95 -208 -194 -361 -378 -195 -234 -306 -336 -499 -463 -254
-166 -506 -266 -785 -311 -35 -6 -37 -5 -108 88 -40 52 -72 97 -72 99 0 2 44
7 98 10 455 28 987 290 1332 654 41 44 122 130 180 193 270 292 531 439 780
438 67 0 71 -1 40 -10z m153 -115 c-13 -2 -33 -2 -45 0 -13 2 -3 4 22 4 25 0
35 -2 23 -4z m-128 -18 c-196 -44 -363 -150 -586 -374 -145 -146 -228 -246
-411 -491 -115 -155 -248 -296 -363 -386 -177 -138 -404 -263 -607 -333 l-117
-40 -67 80 c-53 64 -64 83 -53 90 8 5 21 9 29 9 26 0 205 49 283 76 39 14 131
54 202 88 309 148 541 329 750 586 251 307 430 473 635 589 118 68 266 120
335 120 19 -1 8 -6 -30 -14z m294 -144 c124 -50 267 -176 318 -278 25 -51 28
-69 28 -153 0 -85 -3 -101 -29 -155 -37 -75 -117 -154 -193 -191 -52 -26 -68
-29 -158 -29 -89 0 -107 3 -163 29 -137 63 -200 199 -158 340 20 65 54 106
117 141 47 26 64 30 134 30 69 0 86 -4 127 -28 61 -35 90 -78 96 -138 5 -59
-22 -109 -72 -133 -43 -20 -69 -20 -112 0 -42 20 -64 59 -64 112 0 45 -14 62
-51 62 -75 0 -93 -117 -32 -204 140 -200 456 -96 455 149 -1 188 -162 316
-380 302 -161 -10 -290 -106 -333 -249 -44 -143 -11 -293 85 -396 75 -80 214
-142 316 -142 26 0 96 -15 156 -34 565 -178 1173 -212 1784 -100 267 49 422
95 770 229 210 80 332 123 476 165 502 145 944 167 1283 64 87 -26 231 -88
231 -99 0 -3 -17 3 -37 14 -59 29 -181 68 -295 93 -149 32 -488 32 -698 -1
-293 -45 -652 -152 -1025 -303 -313 -128 -405 -162 -535 -201 -665 -201 -1419
-194 -2060 19 -86 29 -125 48 -182 91 -89 67 -229 135 -323 158 -87 21 -256
21 -360 0 -82 -17 -215 -70 -263 -104 -17 -11 -34 -21 -39 -21 -9 1 -73 57
-73 65 0 8 193 268 261 351 250 307 491 500 697 560 71 20 233 12 301 -15z
m4200 -66 c247 -52 484 -165 641 -305 41 -37 39 -36 -35 14 -444 300 -1037
351 -1750 150 -66 -18 -205 -62 -310 -98 -385 -132 -670 -190 -1055 -217 -370
-26 -846 20 -1145 109 l-71 22 -11 54 c-17 78 -54 151 -119 231 -46 57 -50 63
-18 34 189 -176 305 -273 358 -299 129 -62 246 -75 362 -39 65 20 76 21 202 9
179 -16 554 -14 737 4 309 31 561 84 904 192 296 93 473 136 686 164 39 5 167
7 285 5 185 -3 232 -7 339 -30z m-29 -169 c236 -43 492 -152 613 -259 l32 -28
-45 29 c-133 87 -333 165 -516 203 -129 26 -435 36 -595 20 -340 -35 -541 -87
-1116 -290 -265 -93 -516 -150 -823 -188 -108 -13 -215 -17 -420 -16 -336 1
-476 16 -826 93 l-51 11 25 70 c16 44 30 68 37 65 34 -13 235 -58 340 -76 386
-66 853 -68 1251 -5 237 38 423 85 719 185 318 107 544 163 760 189 50 6 104
13 120 15 70 10 414 -3 495 -18z m65 -176 c55 -11 129 -30 165 -41 75 -24 302
-133 319 -153 6 -7 -26 6 -71 29 -190 98 -385 144 -649 152 -424 13 -852 -78
-1419 -302 -280 -111 -472 -168 -712 -214 -518 -99 -1074 -85 -1574 40 l-88
22 29 21 c16 12 46 36 68 55 38 35 39 35 90 23 422 -93 534 -106 912 -106 228
0 335 4 445 17 305 38 544 92 805 183 412 145 511 176 660 213 294 72 447 91
715 86 160 -3 227 -8 305 -25z m-115 -291 c114 -10 251 -37 300 -59 l25 -11
-25 6 c-14 3 -56 12 -94 20 -373 81 -874 7 -1496 -223 -160 -59 -247 -95 -481
-198 -218 -96 -372 -153 -519 -193 -327 -87 -597 -122 -947 -121 -254 0 -406
11 -612 46 -80 13 -148 24 -152 24 -5 0 -28 41 -53 90 -25 50 -42 90 -40 90 3
0 44 -11 92 -24 290 -80 573 -116 913 -116 515 0 952 89 1435 291 356 149 559
219 829 289 336 86 580 112 825 89z m0 -138 c60 -5 33 -8 -130 -12 -489 -15
-952 -157 -1798 -553 -208 -97 -386 -162 -581 -211 -229 -57 -259 -61 -343
-41 -121 29 -237 38 -356 27 -312 -29 -539 -128 -801 -350 -30 -25 -52 -39
-48 -31 49 117 61 156 74 224 9 51 13 112 9 164 -4 60 -2 82 7 82 7 0 50 -7
97 -15 277 -49 727 -63 1018 -31 268 29 516 81 746 156 123 40 179 63 506 205
539 235 963 354 1375 388 65 6 145 5 225 -2z m133 -18 c-7 -2 -21 -2 -30 0
-10 3 -4 5 12 5 17 0 24 -2 18 -5z m-4803 -99 c241 -56 475 -277 544 -513 31
-106 16 -253 -38 -359 -122 -240 -432 -429 -752 -457 -329 -28 -705 136 -1038
455 -99 95 -276 293 -276 309 0 5 10 11 23 15 18 5 36 -9 104 -82 511 -551
1224 -718 1578 -369 193 191 207 438 36 615 -76 78 -192 132 -285 132 -172 0
-340 -140 -362 -303 -17 -123 102 -295 189 -273 53 13 45 66 -19 138 -18 20
-37 53 -43 72 -34 126 141 273 280 236 68 -19 111 -44 157 -93 57 -63 75 -108
75 -193 1 -277 -350 -433 -661 -293 -302 136 -368 585 -120 814 70 65 193 127
293 149 92 19 234 19 315 0z m-742 -106 c-12 -24 -27 -23 -55 4 -26 24 -29 38
-11 56 18 18 78 -37 66 -60z m-94 -148 c-3 -14 -8 -27 -10 -29 -2 -3 -27 17
-54 44 -47 46 -49 50 -33 67 15 17 18 16 59 -20 34 -30 42 -42 38 -62z m-129
-92 c73 -63 84 -77 85 -105 0 -18 -4 -33 -10 -33 -5 0 -52 41 -105 91 -76 73
-93 94 -84 105 6 8 16 14 21 14 5 0 47 -33 93 -72z m4393 -62 c174 -181 327
-419 427 -663 58 -144 87 -254 125 -478 86 -506 185 -804 342 -1038 46 -68
132 -156 188 -193 22 -15 40 -29 40 -31 0 -12 -72 40 -133 97 -214 198 -351
495 -463 1000 -20 91 -54 217 -76 280 -134 384 -386 747 -692 997 l-40 32 40
17 c112 48 150 63 155 64 3 0 43 -38 87 -84z m-4529 -56 c54 -50 128 -114 164
-142 50 -38 69 -60 77 -86 5 -20 8 -37 6 -39 -9 -9 -209 153 -294 237 -85 85
-91 93 -75 106 10 7 19 14 21 14 2 0 48 -41 101 -90z m4274 -117 c103 -88 249
-258 347 -404 154 -231 257 -479 320 -774 106 -493 265 -828 496 -1044 42 -39
72 -71 68 -71 -4 0 -37 18 -73 39 -235 139 -389 400 -510 857 -75 285 -150
465 -285 687 -182 300 -431 553 -690 702 l-48 28 108 52 109 52 39 -28 c22
-16 75 -59 119 -96z m-4464 55 c122 -135 333 -299 482 -374 41 -20 92 -53 113
-72 39 -35 39 -35 10 -28 -59 15 -222 99 -329 171 -122 82 -265 204 -337 288
-46 53 -46 55 -25 65 12 6 24 11 26 11 2 1 29 -27 60 -61z m7170 -114 c35
-106 53 -134 91 -134 36 0 65 38 57 76 l-4 25 23 -22 23 -22 -24 -29 c-30 -36
-31 -52 -5 -78 24 -24 71 -26 104 -5 52 34 120 -28 97 -89 -15 -38 -59 -76
-90 -76 -76 1 -178 93 -246 221 -42 80 -86 199 -78 212 12 20 28 -5 52 -79z
m-7524 -21 c20 -26 79 -96 131 -155 250 -280 531 -477 818 -573 281 -94 570
-84 831 30 34 15 37 15 26 1 -21 -26 -231 -123 -306 -142 -105 -27 -313 -25
-423 4 -237 62 -494 214 -753 445 -160 143 -422 419 -407 428 27 18 48 8 83
-38z m3443 -161 c215 -59 345 -191 387 -389 26 -121 13 -262 -34 -367 -24 -56
-97 -135 -165 -180 -180 -119 -383 -93 -534 68 -81 87 -106 151 -107 271 0 82
3 95 30 144 59 107 167 171 288 171 78 0 131 -24 191 -83 133 -133 70 -347
-101 -347 -47 0 -59 4 -84 29 -24 25 -29 37 -29 80 0 66 -25 95 -68 80 -79
-27 -67 -181 19 -253 57 -48 89 -60 164 -60 120 1 210 57 262 162 24 49 28 69
28 142 0 103 -28 172 -101 250 -162 174 -430 166 -610 -17 -44 -45 -80 -71
-136 -96 l-76 -35 -30 43 c-67 96 -217 120 -367 60 l-20 -8 20 22 c39 45 212
167 300 213 100 51 218 90 340 113 114 21 337 14 433 -13z m492 -33 c160 -32
332 -108 482 -213 247 -172 494 -469 578 -693 92 -247 -10 -523 -235 -634 -65
-32 -76 -34 -170 -34 -88 0 -107 3 -159 28 -76 35 -171 132 -216 223 -33 63
-35 74 -35 163 0 120 24 180 96 245 118 106 290 103 384 -7 130 -152 78 -377
-87 -377 -43 0 -54 5 -91 39 -38 36 -42 44 -41 86 1 50 28 97 59 104 10 2 35
-2 55 -9 42 -14 72 -4 90 31 17 31 3 57 -43 81 -84 43 -180 21 -234 -55 -42
-59 -57 -110 -50 -174 13 -129 123 -226 257 -227 79 0 140 24 195 79 62 63 80
114 80 230 0 92 -3 106 -32 167 -41 86 -110 160 -182 195 -84 40 -85 41 -56
75 14 16 25 34 25 39 0 61 -219 253 -425 374 -89 52 -195 102 -267 124 -26 9
-48 27 -73 61 -20 27 -49 60 -66 74 -16 14 -29 27 -29 29 0 8 92 -4 190 -24z
m140 -346 c126 -68 242 -151 350 -253 l45 -42 -45 32 c-201 143 -312 205 -412
235 -55 15 -67 29 -68 73 0 19 29 9 130 -45z m-1454 -66 c20 -18 28 -35 31
-73 5 -46 3 -53 -22 -72 -35 -28 -57 -28 -81 -1 -22 24 -66 49 -88 49 -24 0
-46 -30 -46 -64 0 -26 -5 -34 -31 -43 -30 -12 -31 -11 -15 6 35 38 8 101 -44
101 -32 0 -82 -35 -136 -96 -34 -39 -42 -44 -52 -31 -24 28 156 172 276 223
79 32 170 33 208 1z m-3577 -54 c36 -32 179 -168 317 -304 137 -135 297 -283
355 -329 446 -357 923 -530 1350 -491 425 39 770 217 1165 602 67 65 118 107
154 123 151 70 298 25 375 -115 25 -45 30 -65 30 -124 0 -83 -21 -133 -73
-173 -116 -89 -324 54 -245 168 26 38 45 49 82 50 43 0 71 25 71 61 0 58 -101
78 -176 35 -23 -13 -95 -64 -160 -113 -392 -295 -713 -461 -1039 -538 -511
-120 -1007 10 -1510 394 -54 42 -196 173 -315 292 -118 118 -255 249 -303 290
-81 68 -91 80 -122 152 -18 42 -31 77 -28 77 3 0 36 -26 72 -57z m3821 -33 c0
-9 -70 -50 -85 -50 -15 0 9 22 43 40 44 23 42 22 42 10z m1189 -21 c47 -21
238 -135 246 -148 2 -4 -71 30 -163 76 -92 47 -169 89 -171 95 -4 12 24 5 88
-23z m-74 -137 c-3 -3 -11 0 -18 7 -9 10 -8 11 6 5 10 -3 15 -9 12 -12z
m-1120 -8 c-6 -3 -42 -22 -79 -44 -38 -22 -71 -38 -73 -36 -3 2 30 25 73 50
43 25 80 43 83 39 3 -3 1 -7 -4 -9z m-1920 -64 c13 -6 15 -9 5 -9 -8 0 -22 4
-30 9 -18 12 -2 12 25 0z m-1561 -323 c508 -536 1142 -796 1735 -712 375 54
706 202 1166 524 43 31 50 34 25 11 -117 -103 -436 -309 -633 -407 -267 -133
-462 -191 -718 -213 -388 -33 -787 87 -1184 358 -154 105 -193 137 -335 282
-69 70 -174 172 -233 226 l-108 99 -6 60 -6 60 83 -75 c46 -41 142 -137 214
-213z m4576 273 c18 -12 2 -12 -25 0 -13 6 -15 9 -5 9 8 0 22 -4 30 -9z
m-1040 -8 c0 -10 -90 -55 -97 -49 -4 5 75 54 90 56 4 1 7 -3 7 -7z m960 -102
c8 -5 11 -10 5 -10 -5 0 -17 5 -25 10 -8 5 -10 10 -5 10 6 0 17 -5 25 -10z
m-2773 -16 c-3 -3 -12 -4 -19 -1 -8 3 -5 6 6 6 11 1 17 -2 13 -5z m1893 -1
c-1 -10 -101 -55 -108 -49 -4 5 87 55 101 56 4 0 7 -3 7 -7z m847 -110 c-6 -6
-107 20 -107 27 0 4 25 0 55 -8 30 -8 53 -17 52 -19z m-728 3 c-11 -11 -189
-83 -189 -76 0 10 151 79 174 80 11 0 17 -2 15 -4z m537 -91 c88 -15 319 -83
311 -92 -3 -2 -33 5 -68 17 -316 103 -635 86 -914 -49 -55 -27 -101 -48 -103
-46 -6 5 109 69 184 102 132 59 171 65 470 81 17 1 71 -5 120 -13z m1522 -187
c-2 -5 -12 -3 -22 5 -15 11 -17 20 -11 48 l8 34 14 -39 c7 -22 12 -44 11 -48z
m-1703 41 c-147 -9 -281 -39 -396 -90 -74 -32 -207 -108 -243 -138 -12 -10
-17 -11 -12 -3 12 19 146 106 214 138 156 74 280 102 447 101 l120 0 -130 -8z
m268 -145 c39 -8 73 -17 76 -21 3 -3 -6 -3 -20 0 -121 29 -313 35 -440 12
-148 -26 -310 -92 -453 -186 -48 -32 -54 -34 -26 -10 87 75 265 163 394 195
150 38 320 42 469 10z m1473 -89 c29 -25 85 -135 69 -135 -6 0 -225 171 -225
176 0 3 7 16 16 29 l16 25 45 -33 c25 -17 61 -45 79 -62z m-2766 31 c0 -2 -8
-10 -17 -17 -16 -13 -17 -12 -4 4 13 16 21 21 21 13z m1282 -73 c16 -5 -52 -8
-155 -8 -161 0 -192 -3 -267 -24 -122 -34 -243 -88 -343 -154 -49 -32 -86 -53
-83 -48 13 20 161 113 241 151 87 42 193 74 291 90 64 10 272 5 316 -7z
m-1162 3 c0 -2 -8 -10 -17 -17 -16 -13 -17 -12 -4 4 13 16 21 21 21 13z m1247
-22 c-3 -3 -12 -4 -19 -1 -8 3 -5 6 6 6 11 1 17 -2 13 -5z m-1287 -7 c0 -2
-10 -12 -22 -23 l-23 -19 19 23 c18 21 26 27 26 19z m-60 -51 c0 -2 -8 -10
-17 -17 -16 -13 -17 -12 -4 4 13 16 21 21 21 13z m170 -30 c0 -2 -8 -10 -17
-17 -16 -13 -17 -12 -4 4 13 16 21 21 21 13z m1135 -36 c27 -8 25 -9 -12 -4
-86 12 -269 6 -356 -10 -153 -29 -283 -84 -426 -180 -46 -30 -77 -48 -70 -40
18 22 165 117 234 152 73 36 208 79 290 92 71 11 297 4 340 -10z m-1185 -3 c0
-2 -10 -12 -22 -23 l-23 -19 19 23 c18 21 26 27 26 19z m130 -61 c0 -2 -8 -10
-17 -17 -16 -13 -17 -12 -4 4 13 16 21 21 21 13z m-50 -39 c0 -2 -10 -12 -22
-23 l-23 -19 19 23 c18 21 26 27 26 19z m2440 -32 c13 -14 21 -25 18 -25 -2 0
-15 11 -28 25 -13 14 -21 25 -18 25 2 0 15 -11 28 -25z m-2500 -18 c0 -2 -10
-12 -22 -23 l-23 -19 19 23 c18 21 26 27 26 19z m-60 -51 c0 -2 -8 -10 -17
-17 -16 -13 -17 -12 -4 4 13 16 21 21 21 13z m4067 -162 c-3 -3 -12 -4 -19 -1
-8 3 -5 6 6 6 11 1 17 -2 13 -5z"/>
<path d="M758 980 c-122 -13 -268 -47 -298 -69 -31 -23 -37 -57 -14 -82 22
-24 49 -24 160 2 66 15 139 22 279 26 168 4 205 2 320 -17 189 -33 211 -35
240 -16 14 9 25 25 25 34 0 25 -40 60 -81 72 -148 43 -459 68 -631 50z"/>
</g>
</svg>
